<svg width="50" height="50" viewBox="0 0 50 50" fill="none" xmlns="http://www.w3.org/2000/svg">
<mask id="mask0_3925_762" style="mask-type:alpha" maskUnits="userSpaceOnUse" x="0" y="0" width="50" height="50">
<rect width="50" height="50" fill="#D9D9D9"/>
</mask>
<g mask="url(#mask0_3925_762)">
<path d="M48.9473 44.1939C49.1852 48.2895 48.624 52.3942 47.1424 56.1947C45.5709 60.2222 43.0342 63.8456 39.833 66.7153C36.2187 69.9618 31.8053 70.9471 27.8139 73.5171C24.6396 75.5604 22.1029 78.6298 21.2363 82.394C20.3608 86.1899 21.3665 91.3844 24.7743 93.6819C27.3739 95.4346 30.2114 95.8069 33.0714 96.8376C37.2738 98.3542 35.6845 104.081 31.5 103.999C14.3446 103.663 -2.21378 96.6061 -10.237 80.5278C-17.8562 65.2623 -18.3007 43.2858 -9.28069 28.497C0.902126 11.8194 24.7878 9.19037 38.935 22.3808C44.8077 27.8613 48.4758 35.9981 48.9473 44.1939Z" fill="#55C7FF"/>
<path d="M-0.000166637 14.5C-0.000166637 20.299 1.77807 25 6.91447 25C12.0509 25 13.8291 20.299 13.8291 14.5C13.8291 8.70101 11.8533 4 6.91447 4C1.97563 4 -0.000166637 8.70101 -0.000166637 14.5Z" fill="white"/>
<ellipse cx="4.35366" cy="6.40244" rx="4.35366" ry="6.40244" transform="matrix(-1 0 0 1 10.2437 6.56055)" fill="black"/>
<path d="M18.951 14.5C18.951 20.299 20.7292 25 25.8656 25C31.002 25 32.7803 20.299 32.7803 14.5C32.7803 8.70101 30.8045 4 25.8656 4C20.9268 4 18.951 8.70101 18.951 14.5Z" fill="white"/>
<ellipse cx="4.35366" cy="6.40244" rx="4.35366" ry="6.40244" transform="matrix(-1 0 0 1 29.1948 6.56055)" fill="black"/>
</g>
</svg>
