<svg width="59" height="37" viewBox="0 0 59 37" fill="none" xmlns="http://www.w3.org/2000/svg">
<mask id="mask0_3925_742" style="mask-type:alpha" maskUnits="userSpaceOnUse" x="0" y="0" width="59" height="37">
<rect width="59" height="37" fill="#D9D9D9"/>
</mask>
<g mask="url(#mask0_3925_742)">
<path d="M63.9424 -22.8061C64.1803 -18.7105 63.6191 -14.6058 62.1375 -10.8053C60.5661 -6.7778 58.0293 -3.1544 54.8281 -0.284735C51.2139 2.9618 46.8004 3.94711 42.809 6.51709C39.6347 8.56037 37.098 11.6298 36.2315 15.394C35.356 19.1899 36.3617 24.3844 39.7694 26.6819C42.369 28.4346 45.2065 28.8069 48.0665 29.8376C52.269 31.3542 50.6796 37.0808 46.4951 36.999C29.3397 36.663 12.7814 29.6061 4.75811 13.5278C-2.86105 -1.73771 -3.30554 -23.7142 5.71443 -38.503C15.8972 -55.1806 39.7829 -57.8096 53.9302 -44.6192C59.8028 -39.1387 63.4709 -31.0019 63.9424 -22.8061Z" fill="#55C7FF"/>
</g>
</svg>
