<svg width="63" height="79" viewBox="0 0 63 79" fill="none" xmlns="http://www.w3.org/2000/svg">
<mask id="mask0_3925_748" style="mask-type:alpha" maskUnits="userSpaceOnUse" x="0" y="0" width="63" height="79">
<rect width="63" height="79" fill="#D9D9D9"/>
</mask>
<g mask="url(#mask0_3925_748)">
<g clip-path="url(#clip0_3925_748)">
<path d="M-1.94726 63.1939C-2.18522 67.2895 -1.62399 71.3942 -0.142366 75.1947C1.42906 79.2222 3.96578 82.8456 7.16699 85.7153C10.7813 88.9618 15.1947 89.9471 19.1861 92.5171C22.3604 94.5604 24.8971 97.6298 25.7637 101.394C26.6392 105.19 25.6335 110.384 22.2257 112.682C19.6261 114.435 16.7886 114.807 13.9286 115.838C9.72617 117.354 11.3155 123.081 15.5 122.999C32.6554 122.663 49.2138 115.606 57.237 99.5278C64.8562 84.2623 65.3007 62.2858 56.2807 47.497C46.0979 30.8194 22.2122 28.1904 8.06495 41.3808C2.19232 46.8613 -1.47583 54.9981 -1.94726 63.1939Z" fill="#55C7FF"/>
</g>
<path d="M28.049 33.5C28.049 39.299 26.2708 44 21.1344 44C15.998 44 14.2197 39.299 14.2197 33.5C14.2197 27.701 16.1955 23 21.1344 23C26.0732 23 28.049 27.701 28.049 33.5Z" fill="white"/>
<ellipse cx="22.1588" cy="31.963" rx="4.35366" ry="6.40244" fill="black"/>
<path d="M28.049 33.5C28.049 33.5 26.2708 33.5 21.1344 33.5C15.998 33.5 14.2197 33.5 14.2197 33.5C14.2197 27.701 16.1955 23 21.1344 23C26.0732 23 28.049 27.701 28.049 33.5Z" fill="#BABABA"/>
<path d="M43.8293 33.5C43.8293 39.299 42.051 44 36.9146 44C31.7782 44 30 39.299 30 33.5C30 27.701 31.9758 23 36.9146 23C41.8535 23 43.8293 27.701 43.8293 33.5Z" fill="white"/>
<ellipse cx="37.9391" cy="31.963" rx="4.35366" ry="6.40244" fill="black"/>
<path d="M43.8293 33.5C43.8293 33.5 42.051 33.5 36.9146 33.5C31.7782 33.5 30 33.5 30 33.5C30 27.701 31.9758 23 36.9146 23C41.8535 23 43.8293 27.701 43.8293 33.5Z" fill="#BABABA"/>
</g>
<defs>
<clipPath id="clip0_3925_748">
<rect width="65" height="90" fill="white" transform="translate(63 123) rotate(-180)"/>
</clipPath>
</defs>
</svg>
