<svg width="108" height="146" viewBox="0 0 108 146" fill="none" xmlns="http://www.w3.org/2000/svg">
<mask id="mask0_469_17" style="mask-type:alpha" maskUnits="userSpaceOnUse" x="39" y="39" width="29" height="67">
<rect x="39.9775" y="39.9902" width="28" height="66" fill="#D9D9D9"/>
</mask>
<g mask="url(#mask0_469_17)">
<path d="M70.5138 109.122C67.5006 106.337 65.0566 102.992 63.4864 99.2275C61.8234 95.2369 61.1359 90.8675 61.4499 86.5799C61.7999 81.7342 64.2943 77.9623 65.3852 73.3421C66.2533 69.6682 65.9501 65.6978 63.9623 62.3859C61.9588 59.045 57.6303 56.0023 53.5822 56.7124C50.4941 57.2541 48.1925 58.9549 45.4178 60.1972C41.3393 62.021 38.5103 56.7946 41.5802 53.9499C54.167 42.2881 70.9872 35.8804 87.921 41.8912C104 47.5971 119.569 63.1139 123.335 80.0219C127.575 99.097 112.199 117.564 92.8591 117.882C84.8274 118.01 76.5401 114.696 70.5138 109.122Z" fill="#55C7FF"/>
</g>
</svg>
