<svg width="50" height="50" viewBox="0 0 50 50" fill="none" xmlns="http://www.w3.org/2000/svg">
<path fill-rule="evenodd" clip-rule="evenodd" d="M25 50C38.8071 50 50 38.8071 50 25C50 11.1929 38.8071 0 25 0C11.1929 0 0 11.1929 0 25C0 38.8071 11.1929 50 25 50ZM18.4287 25.623C18.0867 26.4678 17.9573 27.3799 18.0122 28.29C18.1208 30.1113 18.9675 31.9194 20.3228 33.1372C23.5874 36.0684 29.0996 35.4844 31.4495 31.7783C33.531 28.4917 33.4285 23.6084 31.6702 20.2158C29.8186 16.6431 25.9973 15.0747 22.0386 15C21.0728 14.9819 20.7061 16.2544 21.6758 16.5918C21.8806 16.6626 22.085 16.7197 22.2871 16.7759C22.7368 16.9014 23.1768 17.0244 23.5906 17.293C24.377 17.8032 24.6091 18.9575 24.407 19.8013C24.207 20.6377 23.6216 21.3198 22.8892 21.7739C22.5173 22.0044 22.1296 22.1777 21.7446 22.3496C21.1758 22.6035 20.6128 22.855 20.1155 23.2852C19.3767 23.9229 18.7913 24.7285 18.4287 25.623Z" fill="white"/>
</svg>
