<svg width="325" height="450" viewBox="0 0 325 450" fill="none" xmlns="http://www.w3.org/2000/svg">
<path d="M0.762876 151.002L0.762893 151.002C3.11307 110.144 21.402 69.5835 50.6657 42.2737C121.183 -23.4738 240.236 -10.3547 290.977 72.7495C335.973 146.524 333.769 256.221 295.738 332.419L296.185 332.643L295.738 332.42C255.731 412.592 173.149 447.821 87.4902 449.499C77.2879 449.698 70.2576 442.826 68.3317 434.973C67.369 431.048 67.687 426.894 69.5106 423.268C71.3313 419.647 74.6696 416.518 79.8125 414.662C84.2388 413.067 88.6317 411.795 92.9998 410.53C95.6835 409.753 98.3579 408.978 101.025 408.133C108.004 405.922 114.852 403.248 121.408 398.828C130.054 392.998 135.625 383.515 138.487 373.136C141.348 362.756 141.513 351.433 139.306 341.862C134.938 322.888 122.157 307.44 106.201 297.169C98.1166 291.963 89.6814 288.051 81.3399 284.181C79.3492 283.258 77.3638 282.337 75.3898 281.401C65.1291 276.539 55.1488 271.274 46.1691 263.208L46.1687 263.208C30.2199 248.911 17.5821 230.859 9.75402 210.796C2.37465 191.867 -0.423192 171.416 0.762876 151.002Z" stroke="black"/>
</svg>
