<svg width="30" height="42" viewBox="0 0 30 42" fill="none" xmlns="http://www.w3.org/2000/svg">
<path d="M0.0243432 14.0908C-0.0854839 16.0021 0.173542 17.9176 0.857369 19.6911C1.58264 21.5706 2.75344 23.2615 4.23092 24.6007C5.89905 26.1157 7.93602 26.5755 9.77822 27.7748C11.2433 28.7283 12.4141 30.1607 12.814 31.9173C13.2181 33.6888 12.7539 36.1128 11.1811 37.185C9.98129 38.0029 8.67166 38.1766 7.35166 38.6576C5.41208 39.3654 6.14563 42.0377 8.07692 41.9996C15.9948 41.8428 23.6371 38.5496 27.3402 31.0465C30.8567 23.9226 31.0618 13.667 26.8988 6.76567C22.199 -1.01716 11.1749 -2.24402 4.64536 3.91147C1.93492 6.46901 0.241925 10.2661 0.0243432 14.0908Z" fill="#526AB2"/>
</svg>
