<svg width="195" height="186" viewBox="0 0 195 186" fill="none" xmlns="http://www.w3.org/2000/svg">
<g clip-path="url(#clip0_2540_1119)">
<path d="M0.158231 120.584C-0.555645 132.87 1.12802 145.185 5.5729 156.586C10.2872 168.669 17.8973 179.539 27.501 188.148C38.3438 197.887 51.5841 200.843 63.5584 208.553C73.0812 214.683 80.6914 223.891 83.291 235.184C85.9175 246.572 82.9004 262.155 72.6771 269.048C64.8784 274.306 56.3658 275.423 47.7858 278.515C35.1785 283.064 39.9466 300.244 52.5 299.999C103.966 298.991 153.641 277.82 177.711 229.585C200.568 183.789 201.902 117.859 174.842 73.493C144.294 23.4601 72.6367 15.5731 30.1949 55.1444C12.577 71.5859 1.57251 95.9962 0.158231 120.584Z" fill="#55C7FF"/>
</g>
<path d="M147.003 31.5C147.003 48.897 141.669 63 126.26 63C110.85 63 105.516 48.897 105.516 31.5C105.516 14.103 111.443 0 126.26 0C141.076 0 147.003 14.103 147.003 31.5Z" fill="white"/>
<ellipse cx="129.329" cy="26.8841" rx="13.061" ry="19.2073" fill="black"/>
<path d="M90.144 31.5C90.144 48.897 84.8093 63 69.4001 63C53.991 63 48.6562 48.897 48.6562 31.5C48.6562 14.103 54.5837 0 69.4001 0C84.2166 0 90.144 14.103 90.144 31.5Z" fill="white"/>
<ellipse cx="72.4755" cy="26.8841" rx="13.061" ry="19.2073" fill="black"/>
<defs>
<clipPath id="clip0_2540_1119">
<rect width="195" height="270" fill="white" transform="translate(195 300.002) rotate(-180)"/>
</clipPath>
</defs>
</svg>
