<svg width="50" height="50" viewBox="0 0 50 50" fill="none" xmlns="http://www.w3.org/2000/svg">
<path fill-rule="evenodd" clip-rule="evenodd" d="M25 -2.18557e-06C38.8071 -3.39263e-06 50 11.1929 50 25C50 38.8071 38.8071 50 25 50C11.1929 50 -9.78513e-07 38.8071 -2.18557e-06 25C-3.39263e-06 11.1929 11.1929 -9.78513e-07 25 -2.18557e-06ZM18.4287 24.3767C18.0868 23.5322 17.9573 22.62 18.0122 21.7099C18.121 19.8886 18.9675 18.0805 20.3227 16.8626C23.5874 13.9314 29.0995 14.5156 31.4494 18.2217C33.5309 21.5081 33.4283 26.3917 31.6701 29.784C29.8186 33.3569 25.9974 34.9251 22.0385 34.9998C21.0728 35.018 20.706 33.7454 21.6758 33.4084C21.8806 33.3373 22.0849 33.2804 22.2871 33.2239C22.7369 33.0985 23.1768 32.9758 23.5905 32.7071C24.3769 32.1966 24.609 31.0423 24.407 30.1987C24.207 29.3623 23.6216 28.6802 22.8891 28.2261C22.5174 27.9957 22.1299 27.8226 21.745 27.6506C21.1761 27.3965 20.613 27.1449 20.1155 26.7146C19.3767 26.0769 18.7913 25.2717 18.4287 24.3767Z" fill="white"/>
</svg>
