<svg width="12" height="16" viewBox="0 0 12 16" fill="none" xmlns="http://www.w3.org/2000/svg">
<path d="M11.9903 5.36792C12.0342 6.09603 11.9306 6.82575 11.6571 7.50138C11.3669 8.21738 10.8986 8.86153 10.3076 9.37169C9.64038 9.94884 8.82559 10.124 8.08871 10.5809C7.50269 10.9441 7.03437 11.4898 6.8744 12.159C6.71277 12.8338 6.89844 13.7573 7.52756 14.1657C8.00748 14.4773 8.53134 14.5435 9.05933 14.7267C9.83517 14.9963 9.54175 16.0144 8.76923 15.9998C5.60207 15.9401 2.54515 14.6856 1.06393 11.8272C-0.342678 9.11338 -0.424736 5.20648 1.24049 2.57739C3.12039 -0.387489 7.53005 -0.854864 10.1419 1.49008C11.226 2.46439 11.9032 3.91091 11.9903 5.36792Z" fill="#D9D9D9"/>
</svg>
