<svg width="93" height="128" viewBox="0 0 93 128" fill="none" xmlns="http://www.w3.org/2000/svg">
<path d="M91.9262 43.2727C92.2593 49.0065 91.4736 54.7531 89.3993 60.0738C87.1993 65.7123 83.6479 70.785 79.1662 74.8025C74.1063 79.3477 67.9275 80.7271 62.3395 84.3251C57.8955 87.1856 54.3441 91.4828 53.131 96.7527C51.9053 102.067 53.3133 109.339 58.0841 112.556C61.7235 115.009 65.6961 115.531 69.7 116.974C75.5834 119.097 73.3583 127.114 67.5001 127C43.4825 126.529 20.3009 116.65 9.06842 94.14C-1.59837 72.7684 -2.22065 42.0013 10.4073 21.2971C24.6632 -2.05149 58.1029 -5.73209 77.9091 12.7345C86.1308 20.4072 91.2662 31.7986 91.9262 43.2727Z" stroke="black"/>
</svg>
